<?xml version="1.0" encoding="UTF-8" standalone="no"?>
<svg
   width="128"
   height="128"
   version="1.1"
   id="svg6"
   sodipodi:docname="icon.svg"
   inkscape:version="1.4.3 (0d15f75, 2025-12-25)"
   xmlns:inkscape="http://www.inkscape.org/namespaces/inkscape"
   xmlns:sodipodi="http://sodipodi.sourceforge.net/DTD/sodipodi-0.dtd"
   xmlns="http://www.w3.org/2000/svg"
   xmlns:svg="http://www.w3.org/2000/svg">
  <defs
     id="defs6" />
  <sodipodi:namedview
     id="namedview6"
     pagecolor="#505050"
     bordercolor="#ffffff"
     borderopacity="1"
     inkscape:showpageshadow="0"
     inkscape:pageopacity="0"
     inkscape:pagecheckerboard="1"
     inkscape:deskcolor="#505050"
     inkscape:zoom="6.5078125"
     inkscape:cx="63.923169"
     inkscape:cy="63.539016"
     inkscape:window-width="1920"
     inkscape:window-height="1051"
     inkscape:window-x="-9"
     inkscape:window-y="-9"
     inkscape:window-maximized="1"
     inkscape:current-layer="svg6" />
  <path
     style="fill:#ffffff"
     id="path20"
     d="m 13.46295,66.243139 c 0.266772,0.42487 0.5412,0.845029 0.800317,1.27461 1.047594,1.736769 1.621992,2.791006 2.653957,4.607852 0.57831,1.018154 3.181642,5.582924 3.621658,6.371639 0.696306,1.248107 1.375253,2.505817 2.06288,3.758727 2.944003,5.3239 5.727024,10.73336 8.562877,16.1147 0.09684,0.1865 0.193673,0.37299 0.29051,0.55949 0,0 3.27471,1.437933 3.27471,1.437933 v 0 c -0.160093,-0.21011 -0.320186,-0.420223 -0.480279,-0.630323 -0.280376,-0.41889 -0.57579,-0.8281 -0.841127,-1.25668 -0.566397,-0.91485 -2.255503,-3.88166 -2.68298,-4.63677 -1.974633,-3.48807 -3.893132,-7.00709 -5.786522,-10.53985 -1.264372,-2.37775 -2.51465,-4.762998 -3.785906,-7.13707 -0.507234,-0.947259 -1.034006,-1.883994 -1.538734,-2.83259 -0.991295,-1.863057 -1.923498,-3.755202 -2.875799,-5.638085 z" />
  <path
     style="fill:#ffffff"
     id="path21"
     d="m 40.233906,51.038041 c -2.364932,2.028114 -1.030829,0.910112 -3.971734,3.290328 -1.1054,0.894654 -2.200777,1.801832 -3.316015,2.684192 -3.433742,2.716728 -6.951141,5.327493 -10.449755,7.959406 -3.901837,2.885698 -7.49868,6.155071 -10.851406,9.657662 -0.282467,0.309457 -0.5695,0.614808 -0.847401,0.928372 -0.327111,0.369088 -0.639093,0.751434 -0.9674678,1.119398 -0.8484204,0.950706 -1.7367364,1.86131 -2.6429312,2.756352 0,0 2.966511,1.808256 2.966511,1.808256 v 0 c 0.847001,-0.943174 1.682444,-1.89731 2.544455,-2.826886 0.339232,-0.36582 0.694039,-0.717179 1.027922,-1.087887 0.27748,-0.308083 0.537025,-0.631858 0.805538,-0.947787 1.125328,-1.308308 2.235988,-2.630695 3.435162,-3.873208 2.114543,-2.190964 4.390562,-4.217022 6.758609,-6.129799 3.40501,-2.734041 6.822279,-5.454112 10.368334,-8.005361 1.186955,-0.853968 2.399525,-1.671798 3.604972,-2.499459 2.411958,-1.656051 2.312745,-1.575249 4.468074,-2.977164 z" />
  <path
     style="fill:#ffffff"
     id="path22"
     d="m 44.8026,80.707485 c 1.813587,2.001802 3.720849,3.917482 5.493872,5.956382 0.416776,0.47927 0.818124,0.97175 1.227186,1.45762 0.349255,0.42609 0.698509,0.85217 1.047764,1.27825 0,0 3.034968,1.28923 3.034968,1.28923 v 0 c -0.36971,-0.43541 -0.73942,-0.87081 -1.10913,-1.30622 -1.244603,-1.47181 -1.267142,-1.51783 -2.563155,-2.97114 -1.260213,-1.41316 -2.583615,-2.77421 -3.754609,-4.26441 z" />
  <circle
     id="path23"
     style="fill:#ffffff;stroke:#000000"
     cx="38.415367"
     cy="72.37455"
     r="0.019339565" />
  <path
     style="fill:#ffffff"
     id="path24"
     d="m 34.478556,69.615149 c 0.93379,0.627279 1.82266,1.317066 2.696769,2.024215 1.147305,0.993173 2.208121,2.08108 3.175947,3.248877 1.439523,1.837856 0.698776,1.393932 4.260938,2.761932 0.09216,0.03539 0.05212,-0.190444 0.07818,-0.285665 -0.0111,-0.09205 -0.0079,-0.186989 -0.0333,-0.276156 -0.169895,-0.596021 -0.667484,-1.098028 -1.052347,-1.562623 -0.438372,-0.544873 -0.90725,-1.061521 -1.422239,-1.534574 -1.278203,-1.133553 -2.891405,-1.774958 -4.336168,-2.667878 5.079977,3.278599 3.831347,2.23186 2.748251,1.56958 0,0 -3.476801,-1.354082 -3.476801,-1.354082 v 0 c 1.138714,0.771596 2.96785,1.157271 3.624166,2.127141 1.189009,0.624275 0.173281,0.09404 -2.81734,-1.646943 -0.06861,-0.03994 0.139895,0.07534 0.206991,0.117769 0.166477,0.105263 0.252193,0.180615 0.408049,0.301081 0.07287,0.05632 0.146248,0.11197 0.219372,0.167955 0.550212,0.431206 1.024364,0.942613 1.466501,1.482945 0.40753,0.492411 0.884498,0.964085 1.150844,1.55091 1.21915,0.396893 0.305156,0.09611 3.321907,1.737703 0.05555,0.03023 -0.132374,-0.007 -0.185,-0.04208 -0.372779,-0.248427 -0.50589,-0.755774 -0.84662,-1.036157 -0.976973,-1.193152 -2.065986,-2.285407 -3.197684,-3.332019 -0.815995,-0.688259 -1.656697,-1.343818 -2.506069,-1.988608 z" />
  <path
     style="fill:#ffffff"
     id="path25"
     d="m 50.55851,68.269614 c 3.234724,3.014681 5.995356,6.493319 8.713933,9.968074 0.847922,1.125859 1.689467,2.257882 2.466539,3.434369 0.35808,0.54213 0.693666,1.08174 0.965435,1.67116 -0.0082,0.0123 -0.01977,0.0507 -0.02453,0.0368 -0.496693,-1.45287 1.263913,0.61369 2.537258,1.0543 0.360331,0.12468 -0.567942,-0.51065 -0.825804,-0.79153 -0.837099,-0.91181 -1.285589,-1.60518 -2.023499,-2.62821 -0.376216,-0.60858 -0.776526,-1.202904 -1.128648,-1.825731 -1.334665,-2.36073 -2.446848,-4.985628 -3.040917,-7.638308 -0.125047,-0.558369 -0.196006,-1.127489 -0.294009,-1.691233 -0.134505,-1.288966 -0.21859,-2.602116 -0.01959,-3.890639 0.07217,-0.467286 0.215036,-1.025044 0.452572,-1.447066 0.08945,-0.15893 0.221567,-0.289744 0.33235,-0.434616 0.161282,-0.09238 0.309823,-0.211848 0.483845,-0.277125 0.71831,-0.26944 1.654629,-0.229834 2.356835,0.06076 0.402799,0.166689 1.568188,0.551943 1.141042,0.638991 -0.508093,0.103545 -0.963058,-0.384754 -1.444587,-0.577131 2.264021,2.015064 4.117133,4.444404 5.71659,7.008147 1.091239,0.585148 2.072109,1.456548 3.273717,1.755445 0.316982,0.07885 -0.03712,-0.657205 -0.124229,-0.972016 -0.141426,-0.511107 -0.385636,-0.988382 -0.557084,-1.490215 -0.541018,-1.583582 -0.868725,-2.73316 -1.247534,-4.386401 -0.185737,-0.810618 -0.33169,-1.629839 -0.497536,-2.444759 -0.314413,-2.022543 -0.670737,-4.064499 -0.649397,-6.120497 0.0089,-0.858782 0.07131,-1.703754 0.431452,-2.497801 0.135134,-0.297947 0.361911,-0.54512 0.542867,-0.817679 0.236123,-0.193371 0.440798,-0.433306 0.708368,-0.580113 1.526156,-0.837349 4.089577,-0.374161 5.312495,0.799371 0.193361,0.185552 -0.533435,-0.05215 -0.800152,-0.07822 2.681551,2.452678 4.62561,5.343882 6.124383,8.637495 0.685607,1.506651 0.885879,2.200786 1.399065,3.705119 0.476638,1.679437 0.276233,0.888291 0.61762,2.369221 0,0 3.128387,1.49375 3.128387,1.49375 v 0 c -0.459117,-1.557212 -0.199039,-0.727155 -0.793265,-2.486048 -0.806851,-2.091666 -1.639931,-4.168725 -2.732344,-6.1333 -1.317178,-2.368789 -2.91892,-4.55289 -4.875565,-6.435781 -1.521049,-1.025787 -3.007739,-2.104462 -4.563148,-3.077361 -0.593342,-0.371132 -1.212773,-0.716634 -1.873107,-0.94848 -1.171846,-0.41144 -2.833331,-0.362338 -3.918985,0.302053 -0.286619,0.175403 -0.496623,0.452806 -0.744934,0.679209 -0.183932,0.309643 -0.417767,0.594646 -0.551795,0.928931 -0.356805,0.889926 -0.369248,1.722333 -0.337254,2.671304 0.07093,2.103751 0.503984,4.176746 0.81711,6.250791 0.392396,2.033362 0.515254,2.778277 0.982085,4.777614 0.153464,0.657256 0.327526,1.309534 0.492947,1.963884 0.116601,0.461232 0.196295,0.933703 0.353116,1.382856 0.05069,0.145191 0.133085,0.296096 0.262236,0.379585 1.005434,0.649961 2.07229,1.199586 3.108436,1.799379 -0.893417,-1.135855 -0.0081,0.0048 -1.168605,-1.559558 -1.474368,-1.98744 -2.990188,-3.959582 -4.79771,-5.660619 -1.411625,-0.919559 -2.798945,-1.877552 -4.234875,-2.758676 -0.407248,-0.249897 -0.83662,-0.472012 -1.287543,-0.630022 -0.789275,-0.276574 -1.834254,-0.261436 -2.597988,0.102566 -0.206983,0.09865 -0.37702,0.261058 -0.56553,0.391587 -0.115543,0.175969 -0.254671,0.338541 -0.34663,0.527906 -0.232147,0.478048 -0.350641,1.07277 -0.405218,1.591617 -0.141862,1.348636 -0.003,2.709708 0.147932,4.049643 0.289003,1.543703 0.339497,2.070327 0.831345,3.5993 0.206873,0.643093 0.452166,1.273592 0.704187,1.90037 0.804921,2.001836 1.75749,3.944737 2.880365,5.787955 0.694713,1.04222 1.061688,1.646766 1.820543,2.599446 0.216901,0.2723 0.401245,0.58788 0.687164,0.78649 1.161366,0.80671 2.360458,1.56986 3.62271,2.20727 0.142947,0.0722 0.33631,-0.0421 0.4574,-0.14692 0.07818,-0.0677 0.04217,-0.20244 0.06325,-0.30366 -0.312019,-0.64315 -0.69915,-1.21952 -1.113295,-1.8033 -0.867391,-1.22266 -1.807965,-2.390106 -2.731558,-3.570138 -2.268971,-2.792548 -0.526714,-0.657766 -2.989327,-3.646732 -1.726826,-2.095913 -3.423303,-4.220956 -5.296313,-6.190569 z" />
  <path
     style="fill:#ffffff"
     id="path26"
     d="m 87.211075,55.925066 c 1.633247,-1.845941 3.199726,-3.776113 4.511694,-5.867747 0.247235,-0.394159 0.467176,-0.804793 0.700764,-1.20719 0.48176,-0.99779 0.988662,-2.031214 1.099248,-3.1532 0.10718,-1.087427 -0.146318,-2.080158 -0.417028,-3.117564 -0.290224,-0.692192 -0.511449,-1.329071 -0.953844,-1.946753 -0.427563,-0.596975 -1.158412,-1.314422 -1.778969,-1.702553 -3.618901,-2.263462 -2.826383,-1.882506 -5.309671,-2.83512 -0.447928,-0.100265 -0.88854,-0.242101 -1.343785,-0.300794 -1.473164,-0.189931 -2.970993,0.02497 -4.319605,0.651473 -1.364023,0.633659 -1.633129,0.994522 -2.777351,1.961914 -0.921095,1.19609 -1.481889,1.769958 -2.084978,3.181721 -0.758525,1.775626 -1.072058,3.914121 -0.884799,5.833172 0.066,0.676355 0.245347,1.336807 0.368021,2.00521 0.601274,2.277667 1.553343,4.481392 3.026487,6.337544 0.744624,0.938221 1.015661,1.109793 1.886318,1.8713 1.366143,0.75609 2.668172,1.641864 4.098429,2.26827 0.726306,0.318098 2.750952,0.192571 3.417537,0.129671 2.095102,-0.197697 4.119832,-0.748198 6.147033,-1.280694 2.382802,-0.702496 4.869778,-1.403429 6.926185,-2.859861 0.273627,-0.193794 0.521399,-0.421726 0.782099,-0.632589 0.82144,-0.718267 1.40079,-1.627433 1.92138,-2.572364 0,0 -3.112743,-1.780817 -3.112743,-1.780817 v 0 c -0.461988,0.923341 -1.003053,1.793565 -1.774309,2.497081 -0.243152,0.205835 -0.47423,0.426844 -0.729455,0.617504 -1.954015,1.459705 -4.338807,2.213455 -6.636172,2.926905 -2.033494,0.539941 -4.031772,1.071455 -6.148004,1.183997 -0.632653,0.03364 -1.270177,0.03984 -1.90049,-0.0241 -0.526733,-0.05343 -1.667643,-0.843537 -1.55442,-0.326349 0.147489,0.673709 1.154039,0.755474 1.731059,1.13321 -0.909075,-0.731175 -1.217509,-0.913253 -1.999859,-1.83009 -1.100639,-1.289839 -1.978097,-2.829399 -2.596376,-4.405074 -0.237239,-0.6046 -0.402582,-1.234998 -0.603872,-1.852497 -0.327952,-1.702843 -0.522717,-2.134289 -0.420688,-3.869846 0.115053,-1.957093 0.677743,-3.767367 1.78137,-5.39296 0.341048,-0.50235 0.766007,-0.942291 1.14901,-1.413436 1.141106,-0.927064 1.383339,-1.261515 2.748576,-1.832134 1.338713,-0.559532 2.824277,-0.708994 4.252138,-0.470567 0.447404,0.07471 0.877941,0.228528 1.316912,0.342791 0.415304,0.176244 1.565205,0.847466 1.245912,0.528731 -0.488563,-0.487709 -1.140287,-0.798165 -1.778766,-1.060653 -0.380132,-0.156278 0.679995,0.465297 0.98921,0.736055 0.897229,0.785642 1.331086,1.598557 1.772995,2.684591 0.293651,1.001937 0.553275,1.91024 0.48053,2.972827 -0.07488,1.093762 -0.505939,2.123199 -0.947726,3.109131 -0.215207,0.403957 -0.414306,0.816917 -0.645621,1.211871 -1.242574,2.121612 -2.823467,4.069497 -4.720317,5.637643 z" />
  <path
     style="fill:#ffffff"
     id="path27"
     d="m 95.593799,33.823026 c 3.354308,2.655439 6.069441,6.006467 8.698421,9.354296 0.78815,1.043984 1.59069,2.078514 2.33488,3.154871 0.13365,0.193304 0.50723,0.678925 0.54894,0.983939 0.009,0.06826 -0.0517,0.127725 -0.0775,0.191588 -0.86743,0.01 -1.69718,-0.216079 -2.49368,-0.553537 -0.48317,-0.204708 -1.02118,-0.346578 -1.41123,-0.697606 -0.20324,-0.182909 0.9655,0.374876 0.80592,0.15285 -0.60255,-0.83831 -1.49083,-1.428547 -2.23624,-2.142821 -2.164986,-2.362954 -4.009922,-5.005494 -5.454623,-7.867813 -0.734049,-1.454338 -1.348458,-2.906376 -1.598858,-4.527024 -0.104186,-0.674317 -0.05771,-1.363415 -0.08657,-2.045123 0.292223,-1.608908 0.247718,-2.204609 1.111776,-3.632974 0.69049,-1.141442 1.749485,-2.163315 2.809056,-2.952024 1.412391,-1.051336 2.108469,-1.269549 3.701689,-2.002483 1.7356,-0.72679 3.56655,-1.127257 5.39972,-1.506504 0,0 -2.72805,-1.889278 -2.72805,-1.889278 v 0 c -1.79725,0.456987 -3.59739,0.918586 -5.308827,1.649355 -0.656653,0.306359 -1.335337,0.569358 -1.969958,0.919079 -1.763097,0.971588 -3.648921,2.460659 -4.713152,4.199982 -0.902214,1.474531 -0.852077,2.119498 -1.14297,3.784398 0.03739,0.710899 -0.0054,1.430586 0.112173,2.132697 0.290569,1.73564 0.937741,3.130527 1.751227,4.682492 1.49182,2.846085 3.315176,5.518845 5.425135,7.941449 3.042732,3.125266 1.822672,2.176734 6.713742,5.171123 0.86878,0.531885 2.73709,1.332508 3.82193,1.230841 0.25095,-0.02352 0.4736,-0.172721 0.7104,-0.259082 0.0539,-0.14895 0.1662,-0.28853 0.16157,-0.44685 -0.0109,-0.373815 -0.47037,-0.900139 -0.64735,-1.134358 -0.84393,-1.116873 -1.7452,-2.188998 -2.61301,-3.287002 -1.48251,-1.821144 -2.96993,-3.637408 -4.52615,-5.396711 -0.93406,-1.055953 -1.88247,-2.097071 -2.892908,-3.080934 -0.276624,-0.269349 -0.573748,-0.516809 -0.860621,-0.775214 z" />
  <path
     style="fill:#ffffff"
     id="path28"
     d="m 91.507353,89.838827 c 4.406741,-0.26569 8.828607,-0.18162 13.237877,-0.0229 2.23822,0.10697 4.47342,0.26863 6.70337,0.48712 0,0 -2.76634,-2.043 -2.76634,-2.043 v 0 c -2.14817,-0.12284 -4.2986,-0.20001 -6.44872,-0.28066 -4.534509,-0.11201 -9.070985,-0.10714 -13.605544,-0.22232 z" />
  <path
     style="fill:#ffffff"
     id="path29"
     d="m 95.910001,89.805277 c 0.0073,0.80996 0.09161,1.60909 0.246003,2.40377 0.114889,0.78359 0.436749,1.47841 0.886148,2.12124 0.228185,0.26052 0.471476,0.52934 0.774495,0.70667 1.607974,0.94096 2.511323,1.8923 4.107693,2.11799 0.93396,0.0438 1.41292,-0.38679 2.05873,-1.00015 0.7968,-0.85693 1.23948,-1.92938 1.67584,-2.99546 0.18154,-0.46071 0.3128,-0.93707 0.41481,-1.42073 0,0 -3.26707,-1.73662 -3.26707,-1.73662 v 0 c -0.0652,0.47238 -0.16099,0.9394 -0.32061,1.39024 -0.37594,1.03149 -0.80941,2.0549 -1.59815,2.84552 -0.62103,0.53843 -1.054932,0.84178 -1.901949,0.68796 -1.232637,-0.354 -2.873803,-1.54362 2.260199,1.45217 0.097,0.0566 -0.19505,-0.11147 -0.28936,-0.17239 -0.30617,-0.19779 -0.26304,-0.18018 -0.52993,-0.43135 -0.52408,-0.55722 -0.835439,-1.22625 -0.984238,-1.9755 -0.171494,-0.75417 -0.282729,-1.52165 -0.202554,-2.29662 z" />
  <path
     style="fill:#ffffff"
     id="path30"
     d="m 91.919494,76.475876 c 0.0972,1.211819 0.140996,2.426295 0.157465,3.641617 0,0 3.228455,1.631504 3.228455,1.631504 v 0 c -0.06247,-1.19145 -0.140224,-2.388971 -0.06524,-3.581152 z" />
  <path
     style="fill:#ffffff"
     id="path31"
     d="m 101.29284,76.322215 c 0.0569,0.995599 0.0548,1.99372 0.0431,2.990534 -0.009,0.546553 -0.025,1.092949 -0.0371,1.639438 0,0 3.30879,1.68591 3.30879,1.68591 v 0 c -0.0121,-0.5591 -0.0281,-1.11811 -0.0371,-1.67727 -0.0115,-0.982151 -0.0153,-1.965777 0.0431,-2.946643 z" />
  <path
     style="fill:#ff2a2a"
     id="path39"
     d="m 59.765767,101.76712 c 0.615308,-0.88712 1.211674,-1.787673 1.845924,-2.661343 1.979422,-2.72664 4.219248,-5.59367 6.324723,-8.19874 3.150189,-3.89766 5.409558,-6.59334 8.786183,-10.320742 1.522632,-1.68081 3.097513,-3.31354 4.646269,-4.970311 4.811705,-4.96719 9.856388,-9.727163 15.355677,-13.930616 1.887319,-1.442597 2.599252,-1.895011 4.449917,-3.154034 0,0 -2.634539,-1.667174 -2.634539,-1.667174 v 0 c -1.56364,1.281002 -2.491156,2.021822 -4.072015,3.412088 -5.144609,4.524359 -9.986047,9.386791 -14.663597,14.388652 -1.541594,1.66286 -3.098538,3.311619 -4.624781,4.98858 -0.06865,0.07543 -8.921699,9.983477 -9.073443,10.154517 -3.045163,3.43256 -6.022279,6.92859 -9.181777,10.258123 z" />
  <path
     style="fill:#ff2a2a"
     id="path40"
     d="m 62.459987,106.16346 c 1.937783,-3.2432 4.249802,-6.257893 6.648679,-9.170793 1.07255,-1.30238 2.150345,-2.60146 3.273559,-3.8604 1.275961,-1.43014 2.614642,-2.80306 3.921963,-4.20459 4.380468,-4.52509 8.928341,-8.880342 13.539666,-13.168093 3.953134,-3.675747 5.632576,-5.218407 9.655679,-8.767439 1.493957,-1.317917 3.005137,-2.616187 4.507707,-3.924281 5.34328,-4.634658 10.90792,-9.005501 16.61297,-13.184077 0.34208,-0.240774 0.68415,-0.481548 1.02622,-0.722322 0,0 -2.90051,-1.824988 -2.90051,-1.824988 v 0 c -0.30276,0.267047 -0.60553,0.534095 -0.90829,0.801143 -5.19022,4.619992 -10.42633,9.188452 -15.59139,13.836822 -7.047956,6.397728 -1.78326,1.61423 -9.130304,8.302544 -6.307026,5.741545 -12.598557,11.506201 -18.626211,17.543351 -2.970164,2.98228 -4.817696,4.77635 -7.628797,7.82167 -2.595287,2.81153 -4.966176,5.813123 -7.500459,8.676933 z" />
</svg>
